<?xml version="1.0" encoding="UTF-8" standalone="no"?>
<!-- Created with Inkscape (http://www.inkscape.org/) -->

<svg
   xmlns:dc="http://purl.org/dc/elements/1.1/"
   xmlns:cc="http://creativecommons.org/ns#"
   xmlns:rdf="http://www.w3.org/1999/02/22-rdf-syntax-ns#"
   xmlns:svg="http://www.w3.org/2000/svg"
   xmlns="http://www.w3.org/2000/svg"
   xmlns:sodipodi="http://sodipodi.sourceforge.net/DTD/sodipodi-0.dtd"
   xmlns:inkscape="http://www.inkscape.org/namespaces/inkscape"
   width="210mm"
   height="297mm"
   viewBox="0 0 210 297"
   version="1.1"
   id="svg8"
   inkscape:version="0.92.2 2405546, 2018-03-11"
   sodipodi:docname="logo.svg">
  <defs
     id="defs2" />
  <sodipodi:namedview
     id="base"
     pagecolor="#ffffff"
     bordercolor="#666666"
     borderopacity="1.0"
     inkscape:pageopacity="0.0"
     inkscape:pageshadow="2"
     inkscape:zoom="0.35"
     inkscape:cx="400"
     inkscape:cy="560"
     inkscape:document-units="mm"
     inkscape:current-layer="layer1"
     showgrid="false"
     inkscape:window-width="1366"
     inkscape:window-height="704"
     inkscape:window-x="0"
     inkscape:window-y="30"
     inkscape:window-maximized="1" />
  <metadata
     id="metadata5">
    <rdf:RDF>
      <cc:Work
         rdf:about="">
        <dc:format>image/svg+xml</dc:format>
        <dc:type
           rdf:resource="http://purl.org/dc/dcmitype/StillImage" />
        <dc:title></dc:title>
      </cc:Work>
    </rdf:RDF>
  </metadata>
  <g
     inkscape:label="Layer 1"
     inkscape:groupmode="layer"
     id="layer1">
    <path
       style="fill:#000080;fill-opacity:1;stroke-width:0.26458332"
       id="path3713"
       d="m 151.8739,218.31108 c -3.92019,-11.48108 -9.66843,-22.19787 -15.39073,-32.85364 -6.17389,-11.0215 -13.02843,-21.63703 -19.87722,-32.24519 -4.47902,-7.05175 -8.76068,-14.22673 -13.17862,-21.3174 -2.72937,-4.62501 -6.014056,-8.86957 -9.378156,-13.04121 -2.664931,-3.27099 -5.251603,-6.5949 -7.529811,-10.14838 -2.306275,-3.64044 -4.392639,-7.40476 -6.295041,-11.269237 -1.537226,-3.226324 -3.06977,-6.451436 -4.753824,-9.603975 -1.518341,-2.557645 -3.012726,-5.125233 -4.331002,-7.79245 -1.122338,-2.175746 -2.110986,-4.420587 -3.107396,-6.656779 -0.591973,-1.46544 -1.407594,-2.786737 -2.305587,-4.075237 -0.290391,-0.487616 -0.857226,-0.712568 -1.234038,-1.100989 -0.0939,-0.09679 -0.133226,-0.244364 -0.2418,-0.324348 -0.03307,-0.02437 -0.0661,0.04879 -0.09915,0.07318 -1.04681,3.753567 -0.06584,-0.06311 9.224431,-4.803923 0.261903,-0.133649 -0.41684,0.421079 -0.574929,0.668999 -0.217506,0.341098 -0.393078,0.709586 -0.543589,1.08509 -0.447675,1.116878 -0.561658,1.862781 -0.826151,3.044447 -0.929897,4.09394 -1.22084,8.284485 -1.419164,12.465706 -0.155517,4.406765 -0.172286,8.816679 -0.160242,13.225658 0.01312,4.507632 0.0039,9.015278 -0.01162,13.522888 -0.04483,5.5638 0.03572,11.12848 -0.12846,16.69042 -0.293174,6.2985 -1.164947,12.53738 -2.287397,18.73487 -0.938144,5.91676 -2.145784,11.77838 -3.580477,17.59305 -1.094023,4.85906 -2.345745,9.67929 -3.532438,14.51591 -1.332699,4.62448 -2.239947,9.33061 -2.783242,14.10783 -0.508508,5.50254 -0.553215,11.03269 -0.574588,16.55418 0.02773,4.31635 0.03767,8.63296 0.08243,12.94917 0.04587,2.61313 0.04588,5.22689 0.08448,7.84005 0.1162,4.81962 0.69309,2.19455 -10.04616,6.16684 -0.334772,0.12383 -0.145465,-0.70057 -0.176633,-1.05615 -0.111051,-1.26694 -0.0054,-1.90155 0.08897,-3.21634 0.263091,-4.62398 1.051446,-9.13956 2.233083,-13.60894 2.077495,-7.54789 5.65535,-14.4963 9.38167,-21.33382 6.31703,-11.51143 13.872623,-22.27096 21.521854,-32.92108 1.119629,-1.49294 2.230292,-2.99263 3.358885,-4.4788 2.53174,-3.33387 3.517535,-4.65133 6.2405,-7.7595 3.024589,-3.45247 6.287063,-6.65626 9.56551,-9.86306 5.515662,-5.18062 11.409262,-9.92211 17.389262,-14.54873 3.30624,-2.52687 6.71455,-4.92147 10.20272,-7.1903 6.27786,-4.06175 25.42678,-14.82667 5.52605,-3.37757 32.96664,-19.297462 -5.40056,3.60342 3.05566,-1.78029 10.09198,-5.72646 6.24208,-4.9068 10.32067,-5.73813 0,0 -8.89956,6.92543 -8.89956,6.92543 v 0 c -3.4549,1.78078 -0.34384,0.18238 9.08373,-5.25245 -6.28708,3.72869 -21.85631,12.67058 -3.14754,1.84275 -3.44244,1.98476 -6.88281,3.9731 -10.32732,5.95427 -0.27289,0.15696 -1.09685,0.61849 -0.82479,0.46009 2.85322,-1.66122 5.71024,-3.31593 8.56841,-4.96863 0.31201,-0.18041 -0.62577,0.35828 -0.92985,0.55174 -0.3412,0.2171 -0.67011,0.45295 -1.00517,0.67942 -0.37718,0.23628 -0.75435,0.47257 -1.13153,0.70885 -3.63871,2.21649 -7.10709,4.71195 -10.54969,7.21771 -6.06392,4.62763 -12.06538,9.33897 -17.66497,14.53026 -2.35736,2.25977 -4.19747,3.98054 -6.475,6.34509 -3.437084,3.5684 -6.591745,7.32269 -9.629958,11.2328 -1.159394,1.49211 -2.302068,2.99714 -3.453101,4.49572 -7.719613,10.52863 -15.318303,21.20255 -21.470019,32.74619 -3.520268,6.71938 -6.903694,13.5241 -8.953222,20.86293 -0.220922,0.85355 -1.019038,3.87992 -1.204587,4.81077 -0.560412,2.81147 -0.700538,5.68703 -0.958908,8.5349 -0.07142,1.15122 -0.163235,1.80181 -0.0657,2.90891 0.02365,0.26852 0.364537,0.64437 0.141772,0.79615 -10.989072,7.48712 -9.762467,9.21605 -9.685436,4.37825 0.03595,-2.63829 0.03132,-5.27712 0.06676,-7.91547 0.02906,-4.34588 0.01289,-8.69207 0.07242,-13.03779 0.04726,-5.55061 0.0556,-11.11043 0.518917,-16.64574 0.468876,-4.81028 1.24865,-9.57213 2.645248,-14.21029 1.243904,-4.84428 2.487933,-9.68901 3.624181,-14.56017 1.484913,-5.80018 2.763141,-11.64801 3.68541,-17.56662 1.142677,-6.14143 2.009177,-12.32332 2.318142,-18.56929 0.172735,-5.53516 0.03881,-11.07396 0.04625,-16.61123 -0.02106,-4.50025 -0.04148,-9.00055 -0.03424,-13.500871 0.01654,-4.423511 -0.01918,-8.849151 0.141246,-13.270487 0.180276,-4.2077 0.425614,-8.429297 1.248835,-12.569023 0.867347,-4.828961 3.623183,-15.094 12.073933,-10.960947 0.622416,0.584192 1.259509,1.160005 1.78286,1.83864 0.923589,1.359318 1.720149,2.776231 2.34433,4.301937 0.946809,2.240685 1.908138,4.481619 3.011403,6.649932 1.306213,2.662743 2.791791,5.219232 4.280765,7.783295 1.669603,3.175281 3.174712,6.429381 4.702291,9.674717 1.860913,3.835469 3.885991,7.590399 6.200537,11.174387 2.279954,3.50875 4.877161,6.77696 7.465601,10.06098 3.33363,4.24425 6.54343,8.59016 9.23336,13.27994 4.302,7.15168 8.47527,14.38028 12.8316,21.49866 6.71517,10.71869 13.40861,21.45776 19.55894,32.51459 5.72749,10.66186 11.34767,21.37636 16.49825,32.33091 0,0 -9.64329,5.41597 -9.64329,5.41597 z"
       inkscape:connector-curvature="0" />
  </g>
</svg>
